<?xml version="1.0" encoding="utf-8"?>
<svg version="1.1" id="Layer_1" xmlns="http://www.w3.org/2000/svg" xmlns:xlink="http://www.w3.org/1999/xlink" x="0px" y="0px"
	 viewBox="0 0 1000 700" style="enable-background:new 0 0 1000 700;" xml:space="preserve">
<style type="text/css">
	.st0{fill:#494368;}
	.st1{fill:none;}
	.st2{fill:#85EFDE;}
	.st3{fill:#93C6F1;}
	.st4{fill:#53BDDF;}
	.st5{fill:#86DAEF;}
	.st6{fill:#C986FF;}
	.st7{fill:#8973F6;}
	.st8{fill:#7687F0;}
</style>
<path class="st0" d="M258.1,572.5c4,0,7.3,1.4,10.1,4.2c2.8,2.8,4.2,6.2,4.2,10.1v49.6h-50.7c-4,0-7.3-1.4-10.1-4.2
	c-2.8-2.8-4.2-6.2-4.2-10.1v-23.6h53.1v-11.7c0-0.7-0.2-1.2-0.7-1.7c-0.5-0.5-1-0.7-1.7-0.7h-50.7v-11.9H258.1z M260.5,624.5v-14.1
	h-41.2V622c0,0.7,0.2,1.2,0.7,1.7c0.5,0.5,1,0.7,1.7,0.7H260.5z"/>
<polygon class="st0" points="375.2,572.5 387.9,572.5 363.9,636.4 354.2,636.4 332.7,588.9 312.4,636.4 312.2,636.2 312.3,636.4 
	302.7,636.4 277.6,572.5 290.3,572.5 307.6,614.9 326,572.5 339.5,572.5 359,614.9 "/>
<path class="st0" d="M442.4,572.5c4,0,7.3,1.4,10.1,4.2c2.8,2.8,4.2,6.2,4.2,10.1v23.6h-53.1V622c0,0.7,0.2,1.2,0.7,1.7
	c0.5,0.5,1,0.7,1.7,0.7h50.7v11.9h-50.7c-4,0-7.3-1.4-10.1-4.2c-2.8-2.8-4.2-6.2-4.2-10.1v-35.3c0-4,1.4-7.3,4.2-10.1
	c2.8-2.8,6.2-4.2,10.1-4.2H442.4z M403.7,598.5h41.2v-11.7c0-0.7-0.2-1.2-0.7-1.7c-0.5-0.5-1-0.7-1.7-0.7h-36.4
	c-0.7,0-1.2,0.2-1.7,0.7c-0.5,0.5-0.7,1-0.7,1.7V598.5z"/>
<path class="st0" d="M532.7,586.8v2.4h-11.9v-2.4c0-0.7-0.2-1.2-0.7-1.7c-0.5-0.5-1-0.7-1.7-0.7H482c-0.7,0-1.2,0.2-1.7,0.7
	c-0.5,0.5-0.7,1-0.7,1.7v9.3c0,0.7,0.2,1.2,0.7,1.7c0.5,0.5,1,0.7,1.7,0.7h36.4c4,0,7.3,1.4,10.1,4.2c2.8,2.8,4.2,6.2,4.2,10.1v9.3
	c0,4-1.4,7.3-4.2,10.1c-2.8,2.8-6.2,4.2-10.1,4.2H482c-4,0-7.3-1.4-10.1-4.2c-2.8-2.8-4.2-6.2-4.2-10.1v-2.4h11.9v2.4
	c0,0.7,0.2,1.2,0.7,1.7c0.5,0.5,1,0.7,1.7,0.7h36.4c0.7,0,1.2-0.2,1.7-0.7c0.5-0.5,0.7-1,0.7-1.7v-9.3c0-0.7-0.2-1.2-0.7-1.7
	c-0.5-0.5-1-0.7-1.7-0.7H482c-4,0-7.3-1.4-10.1-4.2c-2.8-2.8-4.2-6.2-4.2-10.1v-9.3c0-4,1.4-7.3,4.2-10.1c2.8-2.8,6.2-4.2,10.1-4.2
	h36.4c4,0,7.3,1.4,10.1,4.2C531.3,579.4,532.7,582.8,532.7,586.8"/>
<path class="st0" d="M557.9,572.5h36.4c4,0,7.3,1.4,10.1,4.2c2.8,2.8,4.2,6.2,4.2,10.1V622c0,4-1.4,7.3-4.2,10.1
	c-2.8,2.8-6.2,4.2-10.1,4.2h-36.4c-4,0-7.3-1.4-10.1-4.2c-2.8-2.8-4.2-6.2-4.2-10.1v-35.3c0-4,1.4-7.3,4.2-10.1
	C550.6,573.9,553.9,572.5,557.9,572.5 M594.3,584.4h-36.4c-0.7,0-1.2,0.2-1.7,0.7c-0.5,0.5-0.7,1-0.7,1.7V622c0,0.7,0.2,1.2,0.7,1.7
	c0.5,0.5,1,0.7,1.7,0.7h36.4c0.7,0,1.2-0.2,1.7-0.7c0.5-0.5,0.7-1,0.7-1.7v-35.3c0-0.7-0.2-1.2-0.7-1.7
	C595.5,584.6,594.9,584.4,594.3,584.4"/>
<path class="st0" d="M701.8,572.5c4,0,7.3,1.4,10.1,4.2c2.8,2.8,4.2,6.2,4.2,10.1v49.6h-11.8v-49.6c0-0.7-0.2-1.2-0.7-1.7
	c-0.5-0.5-1.1-0.7-1.8-0.7h-25.2c-0.7,0-1.2,0.2-1.7,0.7c-0.5,0.5-0.7,1-0.7,1.7v49.6h-11.9v-49.6c0-0.7-0.2-1.2-0.7-1.7
	c-0.5-0.5-1-0.7-1.7-0.7h-25.3c-0.7,0-1.2,0.2-1.7,0.7c-0.5,0.5-0.7,1-0.7,1.7v49.6h-11.9v-63.9H701.8z"/>
<path class="st0" d="M778.2,572.5c4,0,7.3,1.4,10.1,4.2c2.8,2.8,4.2,6.2,4.2,10.1v23.6h-53.1V622c0,0.7,0.2,1.2,0.7,1.7
	c0.5,0.5,1,0.7,1.7,0.7h50.7v11.9h-50.7c-4,0-7.3-1.4-10.1-4.2c-2.8-2.8-4.2-6.2-4.2-10.1v-35.3c0-4,1.4-7.3,4.2-10.1
	c2.8-2.8,6.2-4.2,10.1-4.2H778.2z M739.5,598.5h41.2v-11.7c0-0.7-0.2-1.2-0.7-1.7c-0.5-0.5-1-0.7-1.7-0.7h-36.4
	c-0.7,0-1.2,0.2-1.7,0.7c-0.5,0.5-0.7,1-0.7,1.7V598.5z"/>
<path class="st1" d="M368.8,533.9c-0.4,0.2-0.8,0.5-1.3,0.7C367.9,534.4,368.3,534.2,368.8,533.9z"/>
<g id="上">
	<path class="st2" d="M388.9,173.8c0,0,118.5-32,142.9-79c14.6-34.5-14.2-39.5-21.7-38c-7.6,1.4-41,8.6-48.9,13
		c-7.9,4.4-33.9,26.1-33.9,26.1l-19,25.5C408.3,121.4,385.1,165.7,388.9,173.8z"/>
	<path class="st3" d="M388.9,173.8c0,0-40.4,123.2-70.5,140.4c-30.1,17.2-46.9,7.4-47.7-9.6c-0.8-17,12.6-54.4,13.3-56.1
		c0.6-1.7,43.3-59.1,62.4-65.3C365.4,176.9,388.9,173.8,388.9,173.8z"/>
	<path class="st4" d="M388.9,173.8c0,0,27.2-102,121.2-117c-26.7-2.5-107.8,12.1-174.7,74c-64.8,64.8-64.8,161.3-64.8,173.9
		C270.6,304.6,270.6,218.5,388.9,173.8z"/>
</g>
<g id="下">
	<path class="st5" d="M627.6,417.4c0,0-118.5,31.9-143,78.9c-14.7,34.5,14.1,39.5,21.7,38c7.6-1.4,41-8.5,48.9-12.9
		c7.9-4.4,33.9-26.1,33.9-26.1l19-25.5C608.2,469.9,631.4,425.6,627.6,417.4z"/>
	<path class="st6" d="M627.6,417.4c0,0,40.5-123.2,70.6-140.4c30.1-17.2,46.9-7.4,47.7,9.7c0.8,17-12.7,54.4-13.3,56.1
		c-0.6,1.7-43.3,59-62.4,65.3C651.2,414.3,627.6,417.4,627.6,417.4z"/>
	<path class="st7" d="M627.6,417.4c0,0-27.2,102-121.3,116.9c26.7,2.5,107.8-12,174.8-73.8c64.8-64.7,64.9-161.3,64.9-173.8
		C746,286.7,746,372.8,627.6,417.4z"/>
</g>
<path class="st3" d="M648.4,150.6c0,0,19.2-46.6-29.9-61.9c-62.1-18.6-130.8,138.8-149.4,185l-19.2,55.5L415.6,389
	c0,0-39.9,37.7-44.1,53.5c-5.8,10.8-18.8,48.6,35.6,59.3S514.9,387,542.5,331.5c22.3-56.4,18.5-79.6,18.5-79.6l52.3-59.6
	L648.4,150.6z"/>
<g>
	<g>
		<path class="st3" d="M371.7,442.5c-3.1,5.4-5.2,11.3-6.3,17.5c-0.5,2.9-1.1,6.2-0.6,9.1c0.5,3.1,2.6,5.8,4.1,8.4
			c0.6,1.1,2.4,0.1,1.7-1c-1.4-2.4-3.3-4.9-3.8-7.7c-0.5-2.9,0.2-6.3,0.7-9.2c1.1-5.7,3.1-11.1,5.9-16.1
			C374.1,442.4,372.4,441.4,371.7,442.5L371.7,442.5z"/>
	</g>
</g>
<g>
	<g>
		<path class="st3" d="M649.5,120.2c0.5,6.5,1.7,13.1,0,19.5c-0.4,1.5-0.8,3-1.3,4.4c-0.4,1.3-0.8,2.8-1.6,4c-0.8,1.1-2.1,1.8-3,2.8
			c-0.9,1.1-1.5,2.3-1.8,3.6c-0.3,1.3,1.5,1.7,1.9,0.5c0.3-0.9,0.7-1.8,1-2.6c-0.6,0.1-1.2,0.2-1.8,0.2c1.6,2.7-2.2,5-3.8,6.5
			c-1,0.9-1.7,2.1-2.5,3.2c-0.9,1.1-2.1,1.9-3.2,2.8c-2,1.8-3.1,4.4-4.9,6.5c-1.8,2.1-4,3.9-6.4,5.4c-1.1,0.7-0.1,2.4,1,1.7
			c2.6-1.6,5-3.5,6.9-5.9c1-1.2,1.9-2.5,2.8-3.8c0.9-1.4,1.9-2.5,3.3-3.5c1.2-1,2.1-2.1,3-3.3c1-1.3,2.1-2.3,3.3-3.3
			c2-1.8,3.7-4.6,2.2-7.2c-0.5-0.8-1.5-0.5-1.8,0.2c-0.3,0.9-0.7,1.8-1,2.6c0.6,0.2,1.3,0.4,1.9,0.5c0.4-1.6,1.1-2.8,2.4-3.9
			c1-0.8,1.9-1.6,2.6-2.7c0.7-1.3,1.1-2.7,1.5-4c0.5-1.5,1-3.1,1.4-4.6c1.6-6.4,0.5-13.1,0-19.6
			C651.4,118.9,649.4,118.9,649.5,120.2L649.5,120.2z"/>
	</g>
</g>
<path class="st6" d="M480.4,258.7c0,0-178.4,77.5-179,135.2c-0.6,57.7,60.5,50.2,60.5,50.2l49.8-52l17.9-10.3l61.4-33.2l44.5-15.4
	l10.7-3.4c0,0,124.4-65.8,137.3-75.5c12.9-9.7,56.4-61.1,14.7-95.3c-41.7-34.2-89.3,40.7-89.3,40.7l-108.1,56.7L480.4,258.7z"/>
<path class="st8" d="M640.1,100.7c0,0,40.1,29.4,65.5,65.3c-47.1-44.6-98.1,30.9-130.9,100c-32.8,69.2-31.9,64.8-31.9,64.8
	s-247.3,101.8-159,163c-12.9-9.2-48.7-26.3-69-63.1c41,31.4,88.3-5.7,159.5-169.2C488.5,250.8,706.7,177.3,640.1,100.7z"/>
<path class="st0" d="M520.4,224.6H378.5l42.6-39.1V162L353,224.6l0,0h-0.1v50.3c0,22.8,21.9,41.3,48.8,41.3h51.4
	c3.7,0,7.2-0.3,10.6-1c0,0,0,0,0,0c21.8-4.1,38.2-20.6,38.2-40.3v-33.1h18.5V224.6z"/>
<path class="st0" d="M677.6,224.6L677.6,224.6L609.4,162v23.5l42.6,39.1H515.8v17.3h12.8v33.1c0,19.7,16.4,36.2,38.2,40.3
	c0,0,0,0,0,0c3.4,0.6,7,1,10.6,1h51.4c26.9,0,48.8-18.5,48.8-41.3L677.6,224.6L677.6,224.6z"/>
</svg>
